<svg width="38" height="38" viewBox="0 0 38 38" fill="none" xmlns="http://www.w3.org/2000/svg">
<g clip-path="url(#clip0_184_173)">
<path d="M19 0.445312C8.75254 0.445312 0.445312 8.75254 0.445312 19C0.445312 29.2475 8.75254 37.5547 19 37.5547C29.2475 37.5547 37.5547 29.2475 37.5547 19C37.5547 8.75254 29.2475 0.445312 19 0.445312ZM12.8362 30.066H8.09029V15.2315H12.8362V30.066ZM10.4633 13.0889C9.95349 13.0889 9.45514 12.9378 9.03125 12.6546C8.60736 12.3713 8.27698 11.9688 8.08189 11.4978C7.88679 11.0268 7.83574 10.5085 7.93519 10.0085C8.03464 9.50854 8.28013 9.04926 8.64061 8.68878C9.00109 8.3283 9.46037 8.08281 9.96038 7.98336C10.4604 7.88391 10.9786 7.93496 11.4496 8.13005C11.9206 8.32515 12.3232 8.65553 12.6064 9.07942C12.8896 9.5033 13.0408 10.0017 13.0408 10.5115C13.0408 11.195 12.7692 11.8506 12.2858 12.334C11.8025 12.8174 11.1469 13.0889 10.4633 13.0889ZM30.1084 30.066H25.4513V22.9146C25.4513 21.207 25.4162 19.0238 23.0261 19.0238C20.601 19.0238 20.2319 20.8746 20.2319 22.7886V30.066H15.5748V15.3735H20.0502V17.3791C21.1857 16.1975 22.824 15.0067 24.5256 15.0067C29.2471 15.0067 30.1143 18.0497 30.1143 21.9981L30.1084 30.066Z" fill="white"/>
</g>
<defs>
<clipPath id="clip0_184_173">
<rect width="38" height="38" fill="white"/>
</clipPath>
</defs>
</svg>
