<svg width="38" height="38" viewBox="0 0 38 38" fill="none" xmlns="http://www.w3.org/2000/svg">
<g clip-path="url(#clip0_184_144)">
<path d="M19 38C29.4959 38 38 29.4959 38 19C38 8.50408 29.4959 0 19 0C8.50408 0 0 8.50408 0 19C0 29.4959 8.50408 38 19 38ZM8.69408 18.5883L27.0133 11.5251C27.8635 11.2179 28.6061 11.7325 28.3306 13.0182L28.3322 13.0166L25.213 27.7115C24.9818 28.7533 24.3628 29.0067 23.4967 28.5158L18.7467 25.0151L16.4556 27.2223C16.2022 27.4756 15.9885 27.6893 15.4977 27.6893L15.8349 22.8554L24.6383 14.9023C25.0214 14.5651 24.5527 14.3751 24.0477 14.7108L13.1686 21.5602L8.47875 20.0972C7.46067 19.7743 7.4385 19.0792 8.69408 18.5883Z" fill="white"/>
</g>
<defs>
<clipPath id="clip0_184_144">
<rect width="38" height="38" fill="white"/>
</clipPath>
</defs>
</svg>
