<svg width="38" height="38" viewBox="0 0 38 38" fill="none" xmlns="http://www.w3.org/2000/svg">
<g clip-path="url(#clip0_184_166)">
<path d="M19 0C8.50695 0 0 8.50695 0 19C0 29.493 8.50695 38 19 38C29.493 38 38 29.493 38 19C38 8.50695 29.493 0 19 0Z" fill="white"/>
<path d="M21.0786 17.2806L29.2123 7.82584H27.2849L20.2224 16.0353L14.5816 7.82584H8.07568L16.6056 20.2399L8.07568 30.1547H10.0032L17.4614 21.4852L23.4184 30.1547H29.9244L21.0781 17.2806H21.0786ZM10.6977 9.27687H13.6583L27.2857 28.7696H24.3252L10.6977 9.27687Z" fill="white"/>
</g>
<defs>
<clipPath id="clip0_184_166">
<rect width="38" height="38" fill="white"/>
</clipPath>
</defs>
</svg>
